<mxfile host="app.diagrams.net" modified="2024-04-08T07:50:19.096Z" agent="Mozilla/5.0 (Windows NT 10.0; Win64; x64) AppleWebKit/537.36 (KHTML, like Gecko) Chrome/120.0.0.0 Safari/537.36" etag="V_Fu9a8tuRZZn1rT6tf6" version="24.2.2" type="github">
  <diagram name="Page-1" id="_aL2HyndRuFS0IE2gdwW">
    <mxGraphModel dx="1222" dy="646" grid="1" gridSize="10" guides="1" tooltips="1" connect="1" arrows="1" fold="1" page="1" pageScale="1" pageWidth="850" pageHeight="1100" math="0" shadow="0">
      <root>
        <mxCell id="0" />
        <mxCell id="1" parent="0" />
        <mxCell id="N-eIPzf-mlfhLaISLXKf-17" value="" style="rounded=0;whiteSpace=wrap;html=1;fillColor=#fff2cc;strokeColor=#d6b656;" vertex="1" parent="1">
          <mxGeometry width="850" height="70" as="geometry" />
        </mxCell>
        <mxCell id="N-eIPzf-mlfhLaISLXKf-16" value="" style="rounded=0;whiteSpace=wrap;html=1;fillColor=#fff2cc;strokeColor=#d6b656;" vertex="1" parent="1">
          <mxGeometry y="1020" width="850" height="80" as="geometry" />
        </mxCell>
        <mxCell id="N-eIPzf-mlfhLaISLXKf-6" value="" style="shape=parallelogram;perimeter=parallelogramPerimeter;whiteSpace=wrap;html=1;fixedSize=1;" vertex="1" parent="1">
          <mxGeometry x="5" width="840" height="70" as="geometry" />
        </mxCell>
        <mxCell id="N-eIPzf-mlfhLaISLXKf-4" value="" style="rounded=1;whiteSpace=wrap;html=1;" vertex="1" parent="1">
          <mxGeometry x="407.5" y="40" width="135" height="90" as="geometry" />
        </mxCell>
        <mxCell id="N-eIPzf-mlfhLaISLXKf-2" value="" style="rounded=1;whiteSpace=wrap;html=1;" vertex="1" parent="1">
          <mxGeometry x="25" y="40" width="240" height="90" as="geometry" />
        </mxCell>
        <mxCell id="N-eIPzf-mlfhLaISLXKf-9" value="" style="shape=process;whiteSpace=wrap;html=1;backgroundOutline=1;" vertex="1" parent="1">
          <mxGeometry x="10" y="140" width="830" height="870" as="geometry" />
        </mxCell>
        <mxCell id="N-eIPzf-mlfhLaISLXKf-10" value="" style="shape=parallelogram;perimeter=parallelogramPerimeter;whiteSpace=wrap;html=1;fixedSize=1;" vertex="1" parent="1">
          <mxGeometry y="1020" width="850" height="80" as="geometry" />
        </mxCell>
        <mxCell id="N-eIPzf-mlfhLaISLXKf-13" value="" style="rounded=1;whiteSpace=wrap;html=1;" vertex="1" parent="1">
          <mxGeometry x="580" y="1030" width="250" height="60" as="geometry" />
        </mxCell>
        <mxCell id="N-eIPzf-mlfhLaISLXKf-14" value="" style="rounded=1;whiteSpace=wrap;html=1;" vertex="1" parent="1">
          <mxGeometry x="50" y="1030" width="250" height="60" as="geometry" />
        </mxCell>
        <mxCell id="N-eIPzf-mlfhLaISLXKf-15" value="" style="rounded=1;whiteSpace=wrap;html=1;" vertex="1" parent="1">
          <mxGeometry x="315" y="1030" width="250" height="60" as="geometry" />
        </mxCell>
        <mxCell id="N-eIPzf-mlfhLaISLXKf-25" value="&lt;font style=&quot;font-size: 40px;&quot;&gt;Text&lt;/font&gt;" style="text;html=1;align=center;verticalAlign=middle;whiteSpace=wrap;rounded=0;" vertex="1" parent="1">
          <mxGeometry x="65" y="45" width="160" height="80" as="geometry" />
        </mxCell>
        <mxCell id="N-eIPzf-mlfhLaISLXKf-29" value="&lt;h1 style=&quot;margin-top: 0px;&quot;&gt;Heading&lt;/h1&gt;" style="text;html=1;whiteSpace=wrap;overflow=hidden;rounded=0;" vertex="1" parent="1">
          <mxGeometry x="40" width="655" height="35" as="geometry" />
        </mxCell>
        <mxCell id="N-eIPzf-mlfhLaISLXKf-50" value="" style="rounded=0;whiteSpace=wrap;html=1;fillColor=#647687;strokeColor=#314354;fontColor=#ffffff;" vertex="1" parent="1">
          <mxGeometry x="101" y="190" width="320" height="170" as="geometry" />
        </mxCell>
        <mxCell id="N-eIPzf-mlfhLaISLXKf-47" value="" style="rounded=1;whiteSpace=wrap;html=1;" vertex="1" parent="1">
          <mxGeometry x="269" y="40" width="135" height="90" as="geometry" />
        </mxCell>
        <mxCell id="N-eIPzf-mlfhLaISLXKf-46" value="" style="rounded=1;whiteSpace=wrap;html=1;" vertex="1" parent="1">
          <mxGeometry x="645" y="40" width="96" height="90" as="geometry" />
        </mxCell>
        <mxCell id="N-eIPzf-mlfhLaISLXKf-26" value="&lt;font style=&quot;font-size: 40px;&quot;&gt;Text&lt;/font&gt;" style="text;html=1;align=center;verticalAlign=middle;whiteSpace=wrap;rounded=0;" vertex="1" parent="1">
          <mxGeometry x="250.5" y="45" width="160" height="80" as="geometry" />
        </mxCell>
        <mxCell id="N-eIPzf-mlfhLaISLXKf-49" value="" style="verticalLabelPosition=bottom;shadow=0;dashed=0;align=center;html=1;verticalAlign=top;strokeWidth=1;shape=mxgraph.mockup.graphics.simpleIcon;strokeColor=#999999;" vertex="1" parent="1">
          <mxGeometry x="198.5" y="220" width="222.5" height="140" as="geometry" />
        </mxCell>
        <mxCell id="N-eIPzf-mlfhLaISLXKf-51" value="" style="rounded=0;whiteSpace=wrap;html=1;fillColor=#bac8d3;strokeColor=#23445d;" vertex="1" parent="1">
          <mxGeometry x="101" y="190" width="320" height="30" as="geometry" />
        </mxCell>
        <mxCell id="N-eIPzf-mlfhLaISLXKf-44" value="&lt;font style=&quot;font-size: 20px;&quot;&gt;Namn&lt;/font&gt;" style="text;html=1;align=left;verticalAlign=middle;whiteSpace=wrap;rounded=0;" vertex="1" parent="1">
          <mxGeometry x="110" y="190" width="70" height="30" as="geometry" />
        </mxCell>
        <mxCell id="N-eIPzf-mlfhLaISLXKf-52" value="&lt;font style=&quot;font-size: 14px;&quot; color=&quot;#d4e1f5&quot;&gt;Text&lt;/font&gt;" style="text;html=1;align=left;verticalAlign=top;whiteSpace=wrap;rounded=0;horizontal=1;" vertex="1" parent="1">
          <mxGeometry x="101" y="220" width="95" height="140" as="geometry" />
        </mxCell>
        <mxCell id="N-eIPzf-mlfhLaISLXKf-68" value="" style="rounded=0;whiteSpace=wrap;html=1;fillColor=#647687;strokeColor=#314354;fontColor=#ffffff;" vertex="1" parent="1">
          <mxGeometry x="429" y="190" width="320" height="170" as="geometry" />
        </mxCell>
        <mxCell id="N-eIPzf-mlfhLaISLXKf-69" value="" style="verticalLabelPosition=bottom;shadow=0;dashed=0;align=center;html=1;verticalAlign=top;strokeWidth=1;shape=mxgraph.mockup.graphics.simpleIcon;strokeColor=#999999;" vertex="1" parent="1">
          <mxGeometry x="526.5" y="220" width="222.5" height="140" as="geometry" />
        </mxCell>
        <mxCell id="N-eIPzf-mlfhLaISLXKf-70" value="" style="rounded=0;whiteSpace=wrap;html=1;fillColor=#bac8d3;strokeColor=#23445d;" vertex="1" parent="1">
          <mxGeometry x="429" y="190" width="320" height="30" as="geometry" />
        </mxCell>
        <mxCell id="N-eIPzf-mlfhLaISLXKf-71" value="&lt;font style=&quot;font-size: 20px;&quot;&gt;Namn&lt;/font&gt;" style="text;html=1;align=left;verticalAlign=middle;whiteSpace=wrap;rounded=0;" vertex="1" parent="1">
          <mxGeometry x="440" y="190" width="70" height="30" as="geometry" />
        </mxCell>
        <mxCell id="N-eIPzf-mlfhLaISLXKf-72" value="&lt;font style=&quot;font-size: 14px;&quot; color=&quot;#d4e1f5&quot;&gt;Text&lt;/font&gt;" style="text;html=1;align=left;verticalAlign=top;whiteSpace=wrap;rounded=0;horizontal=1;" vertex="1" parent="1">
          <mxGeometry x="429" y="220" width="95" height="140" as="geometry" />
        </mxCell>
        <mxCell id="N-eIPzf-mlfhLaISLXKf-73" value="" style="rounded=0;whiteSpace=wrap;html=1;fillColor=#647687;strokeColor=#314354;fontColor=#ffffff;" vertex="1" parent="1">
          <mxGeometry x="101" y="368" width="320" height="170" as="geometry" />
        </mxCell>
        <mxCell id="N-eIPzf-mlfhLaISLXKf-74" value="" style="verticalLabelPosition=bottom;shadow=0;dashed=0;align=center;html=1;verticalAlign=top;strokeWidth=1;shape=mxgraph.mockup.graphics.simpleIcon;strokeColor=#999999;" vertex="1" parent="1">
          <mxGeometry x="198.5" y="398" width="222.5" height="140" as="geometry" />
        </mxCell>
        <mxCell id="N-eIPzf-mlfhLaISLXKf-75" value="" style="rounded=0;whiteSpace=wrap;html=1;fillColor=#bac8d3;strokeColor=#23445d;" vertex="1" parent="1">
          <mxGeometry x="101" y="368" width="320" height="30" as="geometry" />
        </mxCell>
        <mxCell id="N-eIPzf-mlfhLaISLXKf-76" value="&lt;font style=&quot;font-size: 20px;&quot;&gt;Namn&lt;/font&gt;" style="text;html=1;align=left;verticalAlign=middle;whiteSpace=wrap;rounded=0;" vertex="1" parent="1">
          <mxGeometry x="110" y="368" width="70" height="30" as="geometry" />
        </mxCell>
        <mxCell id="N-eIPzf-mlfhLaISLXKf-77" value="&lt;font style=&quot;font-size: 14px;&quot; color=&quot;#d4e1f5&quot;&gt;Text&lt;/font&gt;" style="text;html=1;align=left;verticalAlign=top;whiteSpace=wrap;rounded=0;horizontal=1;" vertex="1" parent="1">
          <mxGeometry x="101" y="398" width="95" height="140" as="geometry" />
        </mxCell>
        <mxCell id="N-eIPzf-mlfhLaISLXKf-78" value="" style="rounded=0;whiteSpace=wrap;html=1;fillColor=#647687;strokeColor=#314354;fontColor=#ffffff;" vertex="1" parent="1">
          <mxGeometry x="429" y="368" width="320" height="170" as="geometry" />
        </mxCell>
        <mxCell id="N-eIPzf-mlfhLaISLXKf-79" value="" style="verticalLabelPosition=bottom;shadow=0;dashed=0;align=center;html=1;verticalAlign=top;strokeWidth=1;shape=mxgraph.mockup.graphics.simpleIcon;strokeColor=#999999;" vertex="1" parent="1">
          <mxGeometry x="526.5" y="398" width="222.5" height="140" as="geometry" />
        </mxCell>
        <mxCell id="N-eIPzf-mlfhLaISLXKf-80" value="" style="rounded=0;whiteSpace=wrap;html=1;fillColor=#bac8d3;strokeColor=#23445d;" vertex="1" parent="1">
          <mxGeometry x="429" y="368" width="320" height="30" as="geometry" />
        </mxCell>
        <mxCell id="N-eIPzf-mlfhLaISLXKf-81" value="&lt;font style=&quot;font-size: 20px;&quot;&gt;Namn&lt;/font&gt;" style="text;html=1;align=left;verticalAlign=middle;whiteSpace=wrap;rounded=0;" vertex="1" parent="1">
          <mxGeometry x="440" y="368" width="70" height="30" as="geometry" />
        </mxCell>
        <mxCell id="N-eIPzf-mlfhLaISLXKf-82" value="&lt;font style=&quot;font-size: 14px;&quot; color=&quot;#d4e1f5&quot;&gt;Text&lt;/font&gt;" style="text;html=1;align=left;verticalAlign=top;whiteSpace=wrap;rounded=0;horizontal=1;" vertex="1" parent="1">
          <mxGeometry x="429" y="398" width="95" height="140" as="geometry" />
        </mxCell>
        <mxCell id="N-eIPzf-mlfhLaISLXKf-83" value="" style="rounded=0;whiteSpace=wrap;html=1;fillColor=#647687;strokeColor=#314354;fontColor=#ffffff;" vertex="1" parent="1">
          <mxGeometry x="101" y="546" width="320" height="170" as="geometry" />
        </mxCell>
        <mxCell id="N-eIPzf-mlfhLaISLXKf-84" value="" style="verticalLabelPosition=bottom;shadow=0;dashed=0;align=center;html=1;verticalAlign=top;strokeWidth=1;shape=mxgraph.mockup.graphics.simpleIcon;strokeColor=#999999;" vertex="1" parent="1">
          <mxGeometry x="198.5" y="576" width="222.5" height="140" as="geometry" />
        </mxCell>
        <mxCell id="N-eIPzf-mlfhLaISLXKf-85" value="" style="rounded=0;whiteSpace=wrap;html=1;fillColor=#bac8d3;strokeColor=#23445d;" vertex="1" parent="1">
          <mxGeometry x="101" y="546" width="320" height="30" as="geometry" />
        </mxCell>
        <mxCell id="N-eIPzf-mlfhLaISLXKf-86" value="&lt;font style=&quot;font-size: 20px;&quot;&gt;Namn&lt;/font&gt;" style="text;html=1;align=left;verticalAlign=middle;whiteSpace=wrap;rounded=0;" vertex="1" parent="1">
          <mxGeometry x="110" y="546" width="70" height="30" as="geometry" />
        </mxCell>
        <mxCell id="N-eIPzf-mlfhLaISLXKf-87" value="&lt;font style=&quot;font-size: 14px;&quot; color=&quot;#d4e1f5&quot;&gt;Text&lt;/font&gt;" style="text;html=1;align=left;verticalAlign=top;whiteSpace=wrap;rounded=0;horizontal=1;" vertex="1" parent="1">
          <mxGeometry x="101" y="576" width="95" height="140" as="geometry" />
        </mxCell>
        <mxCell id="N-eIPzf-mlfhLaISLXKf-88" value="" style="rounded=0;whiteSpace=wrap;html=1;fillColor=#647687;strokeColor=#314354;fontColor=#ffffff;" vertex="1" parent="1">
          <mxGeometry x="429" y="546" width="320" height="170" as="geometry" />
        </mxCell>
        <mxCell id="N-eIPzf-mlfhLaISLXKf-89" value="" style="verticalLabelPosition=bottom;shadow=0;dashed=0;align=center;html=1;verticalAlign=top;strokeWidth=1;shape=mxgraph.mockup.graphics.simpleIcon;strokeColor=#999999;" vertex="1" parent="1">
          <mxGeometry x="526.5" y="576" width="222.5" height="140" as="geometry" />
        </mxCell>
        <mxCell id="N-eIPzf-mlfhLaISLXKf-90" value="" style="rounded=0;whiteSpace=wrap;html=1;fillColor=#bac8d3;strokeColor=#23445d;" vertex="1" parent="1">
          <mxGeometry x="429" y="546" width="320" height="30" as="geometry" />
        </mxCell>
        <mxCell id="N-eIPzf-mlfhLaISLXKf-91" value="&lt;font style=&quot;font-size: 20px;&quot;&gt;Namn&lt;/font&gt;" style="text;html=1;align=left;verticalAlign=middle;whiteSpace=wrap;rounded=0;" vertex="1" parent="1">
          <mxGeometry x="440" y="550" width="70" height="30" as="geometry" />
        </mxCell>
        <mxCell id="N-eIPzf-mlfhLaISLXKf-92" value="&lt;font style=&quot;font-size: 14px;&quot; color=&quot;#d4e1f5&quot;&gt;Text&lt;/font&gt;" style="text;html=1;align=left;verticalAlign=top;whiteSpace=wrap;rounded=0;horizontal=1;" vertex="1" parent="1">
          <mxGeometry x="429" y="576" width="95" height="140" as="geometry" />
        </mxCell>
        <mxCell id="N-eIPzf-mlfhLaISLXKf-103" value="" style="rounded=0;whiteSpace=wrap;html=1;fillColor=#647687;strokeColor=#314354;fontColor=#ffffff;" vertex="1" parent="1">
          <mxGeometry x="101" y="725" width="320" height="170" as="geometry" />
        </mxCell>
        <mxCell id="N-eIPzf-mlfhLaISLXKf-104" value="" style="verticalLabelPosition=bottom;shadow=0;dashed=0;align=center;html=1;verticalAlign=top;strokeWidth=1;shape=mxgraph.mockup.graphics.simpleIcon;strokeColor=#999999;" vertex="1" parent="1">
          <mxGeometry x="198.5" y="755" width="222.5" height="140" as="geometry" />
        </mxCell>
        <mxCell id="N-eIPzf-mlfhLaISLXKf-105" value="" style="rounded=0;whiteSpace=wrap;html=1;fillColor=#bac8d3;strokeColor=#23445d;" vertex="1" parent="1">
          <mxGeometry x="101" y="725" width="320" height="30" as="geometry" />
        </mxCell>
        <mxCell id="N-eIPzf-mlfhLaISLXKf-106" value="&lt;font style=&quot;font-size: 20px;&quot;&gt;Namn&lt;/font&gt;" style="text;html=1;align=left;verticalAlign=middle;whiteSpace=wrap;rounded=0;" vertex="1" parent="1">
          <mxGeometry x="110" y="725" width="70" height="30" as="geometry" />
        </mxCell>
        <mxCell id="N-eIPzf-mlfhLaISLXKf-107" value="&lt;font style=&quot;font-size: 14px;&quot; color=&quot;#d4e1f5&quot;&gt;Text&lt;/font&gt;" style="text;html=1;align=left;verticalAlign=top;whiteSpace=wrap;rounded=0;horizontal=1;" vertex="1" parent="1">
          <mxGeometry x="101" y="755" width="95" height="140" as="geometry" />
        </mxCell>
        <mxCell id="N-eIPzf-mlfhLaISLXKf-108" value="" style="rounded=0;whiteSpace=wrap;html=1;fillColor=#647687;strokeColor=#314354;fontColor=#ffffff;" vertex="1" parent="1">
          <mxGeometry x="429" y="725" width="320" height="170" as="geometry" />
        </mxCell>
        <mxCell id="N-eIPzf-mlfhLaISLXKf-109" value="" style="verticalLabelPosition=bottom;shadow=0;dashed=0;align=center;html=1;verticalAlign=top;strokeWidth=1;shape=mxgraph.mockup.graphics.simpleIcon;strokeColor=#999999;" vertex="1" parent="1">
          <mxGeometry x="526.5" y="755" width="222.5" height="140" as="geometry" />
        </mxCell>
        <mxCell id="N-eIPzf-mlfhLaISLXKf-110" value="" style="rounded=0;whiteSpace=wrap;html=1;fillColor=#bac8d3;strokeColor=#23445d;" vertex="1" parent="1">
          <mxGeometry x="429" y="725" width="320" height="30" as="geometry" />
        </mxCell>
        <mxCell id="N-eIPzf-mlfhLaISLXKf-111" value="&lt;font style=&quot;font-size: 20px;&quot;&gt;Namn&lt;/font&gt;" style="text;html=1;align=left;verticalAlign=middle;whiteSpace=wrap;rounded=0;" vertex="1" parent="1">
          <mxGeometry x="440" y="725" width="70" height="30" as="geometry" />
        </mxCell>
        <mxCell id="N-eIPzf-mlfhLaISLXKf-112" value="&lt;font style=&quot;font-size: 14px;&quot; color=&quot;#d4e1f5&quot;&gt;Text&lt;/font&gt;" style="text;html=1;align=left;verticalAlign=top;whiteSpace=wrap;rounded=0;horizontal=1;" vertex="1" parent="1">
          <mxGeometry x="429" y="755" width="95" height="140" as="geometry" />
        </mxCell>
        <mxCell id="N-eIPzf-mlfhLaISLXKf-116" value="&lt;font style=&quot;font-size: 14px;&quot;&gt;Add to cart&lt;/font&gt;" style="rounded=1;whiteSpace=wrap;html=1;fillColor=#1ba1e2;strokeColor=#006EAF;fontColor=#ffffff;opacity=50;" vertex="1" parent="1">
          <mxGeometry x="660" y="500" width="80" height="30" as="geometry" />
        </mxCell>
        <mxCell id="N-eIPzf-mlfhLaISLXKf-121" value="&lt;font style=&quot;font-size: 14px;&quot;&gt;Add to cart&lt;/font&gt;" style="rounded=1;whiteSpace=wrap;html=1;fillColor=#1ba1e2;strokeColor=#006EAF;fontColor=#ffffff;opacity=50;" vertex="1" parent="1">
          <mxGeometry x="660" y="320" width="80" height="30" as="geometry" />
        </mxCell>
        <mxCell id="N-eIPzf-mlfhLaISLXKf-122" value="&lt;font style=&quot;font-size: 14px;&quot;&gt;Add to cart&lt;/font&gt;" style="rounded=1;whiteSpace=wrap;html=1;fillColor=#1ba1e2;strokeColor=#006EAF;fontColor=#ffffff;opacity=50;" vertex="1" parent="1">
          <mxGeometry x="330.5" y="320" width="80" height="30" as="geometry" />
        </mxCell>
        <mxCell id="N-eIPzf-mlfhLaISLXKf-123" value="&lt;font style=&quot;font-size: 14px;&quot;&gt;Add to cart&lt;/font&gt;" style="rounded=1;whiteSpace=wrap;html=1;fillColor=#1ba1e2;strokeColor=#006EAF;fontColor=#ffffff;opacity=50;" vertex="1" parent="1">
          <mxGeometry x="330.5" y="500" width="80" height="30" as="geometry" />
        </mxCell>
        <mxCell id="N-eIPzf-mlfhLaISLXKf-124" value="&lt;font style=&quot;font-size: 14px;&quot;&gt;Add to cart&lt;/font&gt;" style="rounded=1;whiteSpace=wrap;html=1;fillColor=#1ba1e2;strokeColor=#006EAF;fontColor=#ffffff;opacity=50;" vertex="1" parent="1">
          <mxGeometry x="327.5" y="675" width="80" height="30" as="geometry" />
        </mxCell>
        <mxCell id="N-eIPzf-mlfhLaISLXKf-125" value="&lt;font style=&quot;font-size: 14px;&quot;&gt;Add to cart&lt;/font&gt;" style="rounded=1;whiteSpace=wrap;html=1;fillColor=#1ba1e2;strokeColor=#006EAF;fontColor=#ffffff;opacity=50;" vertex="1" parent="1">
          <mxGeometry x="660" y="675" width="80" height="30" as="geometry" />
        </mxCell>
        <mxCell id="N-eIPzf-mlfhLaISLXKf-126" value="&lt;font style=&quot;font-size: 14px;&quot;&gt;Add to cart&lt;/font&gt;" style="rounded=1;whiteSpace=wrap;html=1;fillColor=#1ba1e2;strokeColor=#006EAF;fontColor=#ffffff;opacity=50;" vertex="1" parent="1">
          <mxGeometry x="660" y="854" width="80" height="30" as="geometry" />
        </mxCell>
        <mxCell id="N-eIPzf-mlfhLaISLXKf-127" value="&lt;font style=&quot;font-size: 14px;&quot;&gt;Add to cart&lt;/font&gt;" style="rounded=1;whiteSpace=wrap;html=1;fillColor=#1ba1e2;strokeColor=#006EAF;fontColor=#ffffff;opacity=50;" vertex="1" parent="1">
          <mxGeometry x="330.5" y="854" width="80" height="30" as="geometry" />
        </mxCell>
        <mxCell id="N-eIPzf-mlfhLaISLXKf-129" value="" style="html=1;verticalLabelPosition=bottom;align=center;labelBackgroundColor=#ffffff;verticalAlign=top;strokeWidth=2;strokeColor=#000000;shadow=0;dashed=0;shape=mxgraph.ios7.icons.looking_glass;" vertex="1" parent="1">
          <mxGeometry x="720" y="150" width="29" height="30" as="geometry" />
        </mxCell>
        <mxCell id="N-eIPzf-mlfhLaISLXKf-134" value="" style="line;strokeWidth=2;html=1;opacity=80;" vertex="1" parent="1">
          <mxGeometry x="100" y="172" width="613" height="10" as="geometry" />
        </mxCell>
        <mxCell id="N-eIPzf-mlfhLaISLXKf-135" value="" style="rounded=1;whiteSpace=wrap;html=1;" vertex="1" parent="1">
          <mxGeometry x="744" y="40" width="96" height="90" as="geometry" />
        </mxCell>
        <mxCell id="N-eIPzf-mlfhLaISLXKf-136" value="" style="rounded=1;whiteSpace=wrap;html=1;" vertex="1" parent="1">
          <mxGeometry x="545.5" y="40" width="96" height="90" as="geometry" />
        </mxCell>
        <mxCell id="N-eIPzf-mlfhLaISLXKf-137" value="&lt;font style=&quot;font-size: 40px;&quot;&gt;Text&lt;/font&gt;" style="text;html=1;align=center;verticalAlign=middle;whiteSpace=wrap;rounded=0;" vertex="1" parent="1">
          <mxGeometry x="395" y="45" width="160" height="80" as="geometry" />
        </mxCell>
        <mxCell id="N-eIPzf-mlfhLaISLXKf-139" value="" style="verticalLabelPosition=bottom;shadow=0;dashed=0;align=center;html=1;verticalAlign=top;strokeWidth=1;shape=mxgraph.mockup.graphics.simpleIcon;strokeColor=#999999;" vertex="1" parent="1">
          <mxGeometry x="552" y="45" width="83" height="80" as="geometry" />
        </mxCell>
        <mxCell id="N-eIPzf-mlfhLaISLXKf-140" value="" style="verticalLabelPosition=bottom;shadow=0;dashed=0;align=center;html=1;verticalAlign=top;strokeWidth=1;shape=mxgraph.mockup.graphics.simpleIcon;strokeColor=#999999;" vertex="1" parent="1">
          <mxGeometry x="651.5" y="45" width="83" height="80" as="geometry" />
        </mxCell>
        <mxCell id="N-eIPzf-mlfhLaISLXKf-141" value="" style="verticalLabelPosition=bottom;shadow=0;dashed=0;align=center;html=1;verticalAlign=top;strokeWidth=1;shape=mxgraph.mockup.graphics.simpleIcon;strokeColor=#999999;" vertex="1" parent="1">
          <mxGeometry x="752" y="45" width="83" height="80" as="geometry" />
        </mxCell>
      </root>
    </mxGraphModel>
  </diagram>
</mxfile>
